# xmcd
#
# Track frame offsets:
#	182
#	37057
#	49207
#	63382
#	98407
#	115332
#	142957
#	161107
#	189082
#	199582
#	215182
#	237232
#	247732
#	265582
#	279382
#	301432
#
# Disc length: 4167
#
# Revision: 2
# Processed by: cddbd v1.5.1PL0 Copyright (c) Steve Scherf et al.
# Submitted via: DiscPlay 4.0.4
# Normalized: r1:TDELIM( - )
#
DISCID=df104510
DTITLE=Jimi Hendrix and Eric Clapton - White boy black boy blues
DYEAR=1900
DGENRE=
TTITLE0=Jimi  Hendrix - Red house
TTITLE1=Jimi  Hendrix - She's a fox
TTITLE2=Jimi  Hendrix - Whoa eeh
TTITLE3=Jimi  Hendrix - Peoples peoples
TTITLE4=Jimi  Hendrix - Suspicious
TTITLE5=Jimi  Hendrix - Blue Blues
TTITLE6=Jimi  Hendrix - Good feelings
TTITLE7=Jimi  Hendrix - Lime Lime
TTITLE8=Eric Clapton - Got to hurry
TTITLE9=Eric Clapton - Louise
TTITLE10=Eric Clapton - Five long years
TTITLE11=Eric Clapton - Westcoast idea
TTITLE12=Eric Clapton - Stormy monday blues
TTITLE13=Eric Clapton - Dragging my tail
TTITLE14=Eric Clapton - The first time I met the blues
TTITLE15=Eric Clapton - Shake drive
EXTD=
EXTT0=
EXTT1=
EXTT2=
EXTT3=
EXTT4=
EXTT5=
EXTT6=
EXTT7=
EXTT8=
EXTT9=
EXTT10=
EXTT11=
EXTT12=
EXTT13=
EXTT14=
EXTT15=
PLAYORDER=
